<svg width="115" height="14" viewBox="0 0 115 14" fill="none" xmlns="http://www.w3.org/2000/svg">
<path id="logo" d="M9.9 5.482C9.846 2.53 7.794 0.694 5.238 0.694C2.61 0.694 0.45 2.638 0.45 5.482C0.45 8.344 2.61 10.27 5.22 10.27C7.29 10.27 8.928 9.352 9.702 7.444L7.146 6.922C6.66 7.804 5.886 7.966 5.22 7.966C4.248 7.966 3.51 7.3 3.276 6.22H9.9V5.482ZM5.238 3.034C6.066 3.034 6.786 3.484 7.056 4.456H3.33C3.6 3.538 4.428 3.034 5.238 3.034ZM20.9015 0.963999H18.0215V1.684C17.3195 1.054 16.3835 0.694 15.2135 0.694C12.8195 0.694 10.8035 2.638 10.8035 5.482C10.8035 8.344 12.8195 10.27 15.2135 10.27C16.3835 10.27 17.3195 9.91 18.0215 9.28V10H20.9015V0.963999ZM15.8075 7.822C14.5475 7.822 13.6295 6.886 13.6295 5.482C13.6295 4.096 14.5475 3.142 15.8075 3.142C16.9775 3.142 18.0215 4.096 18.0215 5.482C18.0215 6.886 16.9775 7.822 15.8075 7.822ZM22.3695 7.642C22.6755 9.496 24.4935 10.27 26.6175 10.27C28.9935 10.27 30.7215 9.226 30.7215 7.228C30.7215 5.896 29.9295 4.87 28.2195 4.51L26.0955 4.078C25.5195 3.952 25.4115 3.7 25.4115 3.448C25.4115 3.124 25.6635 2.746 26.4375 2.746C27.3195 2.746 27.8595 3.25 27.9495 3.808L30.5775 3.286C30.2175 1.72 28.7235 0.694 26.4735 0.694C24.1875 0.694 22.5855 1.9 22.5855 3.754C22.5855 5.176 23.5395 6.076 25.2135 6.382L27.0495 6.742C27.7155 6.868 27.9495 7.102 27.9495 7.408C27.9495 7.804 27.5355 8.128 26.7795 8.128C26.0055 8.128 25.3035 7.84 25.1775 7.066L22.3695 7.642ZM41.7362 0.946H38.6402L36.3542 6.22L34.2122 0.946H31.1162L34.8602 9.694L33.4022 13.06H36.5162L41.7362 0.946ZM51.4371 5.482C51.3831 2.53 49.3311 0.694 46.7751 0.694C44.1471 0.694 41.9871 2.638 41.9871 5.482C41.9871 8.344 44.1471 10.27 46.7571 10.27C48.8271 10.27 50.4651 9.352 51.2391 7.444L48.6831 6.922C48.1971 7.804 47.4231 7.966 46.7571 7.966C45.7851 7.966 45.0471 7.3 44.8131 6.22H51.4371V5.482ZM46.7751 3.034C47.6031 3.034 48.3231 3.484 48.5931 4.456H44.8671C45.1371 3.538 45.9651 3.034 46.7751 3.034ZM58.9568 5.626L61.9448 0.946H58.6328L56.9048 3.754L55.1588 0.946H51.8648L54.8348 5.626L51.8648 10H55.1588L56.9048 7.39L58.6328 10H61.9448L58.9568 5.626ZM69.064 0.694C67.894 0.694 66.958 1.054 66.256 1.684V0.963999H63.376V13.06H66.256V9.28C66.958 9.91 67.894 10.27 69.064 10.27C71.458 10.27 73.474 8.344 73.474 5.482C73.474 2.638 71.458 0.694 69.064 0.694ZM68.47 7.822C67.3 7.822 66.256 6.886 66.256 5.482C66.256 4.096 67.3 3.142 68.47 3.142C69.73 3.142 70.648 4.096 70.648 5.482C70.648 6.886 69.73 7.822 68.47 7.822ZM83.816 5.482C83.762 2.53 81.71 0.694 79.154 0.694C76.526 0.694 74.366 2.638 74.366 5.482C74.366 8.344 76.526 10.27 79.136 10.27C81.206 10.27 82.844 9.352 83.618 7.444L81.062 6.922C80.576 7.804 79.802 7.966 79.136 7.966C78.164 7.966 77.426 7.3 77.192 6.22H83.816V5.482ZM79.154 3.034C79.982 3.034 80.702 3.484 80.972 4.456H77.246C77.516 3.538 78.344 3.034 79.154 3.034ZM90.9655 0.694C89.8315 0.694 88.8775 1.108 88.1935 1.828V0.963999H85.3135V10H88.1935V5.806C88.1935 4.06 88.9315 3.286 90.0655 3.286C90.9835 3.286 91.6135 4.006 91.6135 5.068V10H94.4755V4.456C94.4755 2.188 93.0715 0.694 90.9655 0.694ZM95.8285 7.642C96.1345 9.496 97.9525 10.27 100.076 10.27C102.452 10.27 104.18 9.226 104.18 7.228C104.18 5.896 103.388 4.87 101.678 4.51L99.5545 4.078C98.9785 3.952 98.8705 3.7 98.8705 3.448C98.8705 3.124 99.1225 2.746 99.8965 2.746C100.778 2.746 101.318 3.25 101.408 3.808L104.036 3.286C103.676 1.72 102.182 0.694 99.9325 0.694C97.6465 0.694 96.0445 1.9 96.0445 3.754C96.0445 5.176 96.9985 6.076 98.6725 6.382L100.508 6.742C101.174 6.868 101.408 7.102 101.408 7.408C101.408 7.804 100.994 8.128 100.238 8.128C99.4645 8.128 98.7625 7.84 98.6365 7.066L95.8285 7.642ZM114.507 5.482C114.453 2.53 112.401 0.694 109.845 0.694C107.217 0.694 105.057 2.638 105.057 5.482C105.057 8.344 107.217 10.27 109.827 10.27C111.897 10.27 113.535 9.352 114.309 7.444L111.753 6.922C111.267 7.804 110.493 7.966 109.827 7.966C108.855 7.966 108.117 7.3 107.883 6.22H114.507V5.482ZM109.845 3.034C110.673 3.034 111.393 3.484 111.663 4.456H107.937C108.207 3.538 109.035 3.034 109.845 3.034Z" fill="#4D4D4D"/>
</svg>
